<svg width="570" height="402" xmlns="http://www.w3.org/2000/svg" xmlns:xlink="http://www.w3.org/1999/xlink" overflow="hidden"><defs><clipPath id="clip0"><rect x="195" y="92" width="570" height="402"/></clipPath></defs><g clip-path="url(#clip0)" transform="translate(-195 -92)"><path d="M255.283 101.007C252.693 101.007 251.209 102.823 251.209 104.752L251.209 109.972 259.961 109.972 259.961 104.752C259.961 102.823 257.865 101.007 255.283 101.007ZM305.074 101.007C302.608 101.007 300.513 102.823 300.513 104.752L300.513 109.972 309.265 109.972 309.265 104.752C309.265 102.823 307.664 101.007 305.074 101.007ZM354.996 101.007C352.406 101.007 350.311 102.823 350.311 104.752L350.311 109.972 359.063 109.972 359.063 104.752C359.063 102.823 357.463 101.007 354.996 101.007ZM404.795 101.007C402.205 101.007 400.11 102.823 400.11 104.752L400.11 109.972 408.862 109.972 408.862 104.752C408.862 102.823 406.767 101.007 404.795 101.007ZM454.586 101.007C452.004 101.007 449.909 102.823 449.909 104.752L449.909 109.972 458.653 109.972 458.653 104.752C458.653 102.823 456.682 101.007 454.586 101.007ZM504.385 101.007C501.795 101.007 499.824 102.823 499.824 104.752L499.824 109.972 508.452 109.972 508.452 104.752C508.452 102.823 506.48 101.007 504.385 101.007ZM553.689 101.007C551.594 101.007 549.622 102.823 549.622 104.752L549.622 109.972 558.374 109.972 558.374 104.752C558.374 102.823 556.279 101.007 553.689 101.007ZM603.488 101.007C601.516 101.007 599.421 102.823 599.421 104.752L599.421 109.972 608.173 109.972 608.173 104.752C608.173 102.823 606.078 101.007 603.488 101.007ZM653.279 101.007C651.307 101.007 649.212 102.823 649.212 104.752L649.212 109.972 657.964 109.972 657.964 104.752C657.964 102.823 655.869 101.007 653.279 101.007ZM703.201 101.007C700.611 101.007 699.011 102.823 699.011 104.752L699.011 109.972 707.763 109.972 707.763 104.752C707.763 102.823 705.668 101.007 703.201 101.007ZM214.236 119.394C208.562 121.779 204 127.455 204 133.586L204 471.327C204 479.844 211.646 486.993 220.893 486.993L737.591 486.993C744.743 486.993 750.905 483.134 753 477.458L753 477.458C751.399 477.914 748.81 478.483 746.838 478.483L230.132 478.483C220.893 478.483 213.247 471.782 213.247 463.272L213.247 125.525C213.247 123.139 213.741 121.324 214.236 119.394Z" fill="#005C4F" fill-rule="evenodd"/><path d="M197.11 399C196.617 399 196.007 399.453 196.007 399.906L196.007 475.617C196.007 485.434 204.244 492.993 215.064 492.993L338.013 492.993C338.507 492.993 339 492.54 339 492.094 339 491.528 338.507 491.075 338.013 491.075L215.064 491.075C210.391 491.075 205.841 489.723 202.764 486.899 199.694 484.082 198.097 479.793 198.097 475.617L198.097 399.906C198.097 399.453 197.604 399 197.11 399Z" fill="#005C4F" fill-rule="evenodd" fill-opacity="0.690196"/><path d="M229.932 111.007C221.164 111.007 214.007 117.594 214.007 125.664L214.007 463.792C214.007 471.406 221.164 477.993 229.932 477.993L747.563 477.993C755.712 477.993 762.993 471.406 762.993 463.792L762.993 125.664C762.993 117.594 755.712 111.007 747.563 111.007Z" fill="#FFFFFF" fill-rule="evenodd"/><path d="M747.098 112.389C754.744 112.389 760.912 118.072 760.912 125.573L760.912 463.769C760.912 470.928 754.744 476.611 747.098 476.611L229.902 476.611C221.637 476.611 215.469 470.928 215.469 463.769L215.469 125.573C215.469 118.072 221.637 112.389 229.902 112.389ZM229.902 110C220.653 110 213 117.052 213 125.573L213 463.769C213 472.29 220.653 479 229.902 479L747.098 479C756.346 479 764 472.29 764 463.769L764 125.573C764 117.052 756.346 110 747.098 110Z" fill="#EEEEEE" fill-rule="evenodd"/><path d="M229.902 110C220.653 110 213 117.124 213 125.731L213 175 764 175 764 125.731C764 117.124 756.346 110 747.098 110Z" fill="#70B16D" fill-rule="evenodd" fill-opacity="0.529412"/><path d="M247.102 197C244.995 197 244.007 198.453 244.007 199.801L244.007 209.199C244.007 210.54 244.995 211.993 247.102 211.993L256.898 211.993C258.383 211.993 259.993 210.54 259.993 209.199L259.993 199.801C259.993 198.453 258.383 197 256.898 197Z" fill="#FFFFFF" fill-rule="evenodd"/><path d="M247.102 265.007C244.995 265.007 244.007 266.049 244.007 267.908L244.007 277.092C244.007 279.067 244.995 279.993 247.102 279.993L256.898 279.993C258.383 279.993 259.993 279.067 259.993 277.092L259.993 267.908C259.993 266.049 258.383 265.007 256.898 265.007Z" fill="#FFFFFF" fill-rule="evenodd"/><path d="M247.102 333C244.995 333 244.007 334.464 244.007 335.822L244.007 344.726C244.007 346.642 244.995 347.993 247.102 347.993L256.898 347.993C258.383 347.993 259.993 346.642 259.993 344.726L259.993 335.822C259.993 334.464 258.383 333 256.898 333Z" fill="#FFFFFF" fill-rule="evenodd"/><path d="M247.102 400.007C244.995 400.007 244.007 401.357 244.007 403.273L244.007 412.18C244.007 413.643 244.995 414.993 247.102 414.993L256.898 414.993C258.383 414.993 259.993 413.643 259.993 412.18L259.993 403.273C259.993 401.357 258.383 400.007 256.898 400.007Z" fill="#FFFFFF" fill-rule="evenodd"/><path d="M264.687 93C262.026 93 260 94.8174 260 97.2048L260 123.674C260 126.062 262.026 127.993 264.687 127.993 266.84 127.993 268.993 126.062 268.993 123.674L268.993 97.2048C268.993 94.8174 266.84 93 264.687 93Z" fill="#992020" fill-rule="evenodd"/><path d="M314.17 93C311.915 93 310 94.8174 310 97.2048L310 123.674C310 126.062 311.915 127.993 314.17 127.993 316.085 127.993 318 126.062 318 123.674L318 97.2048C318 94.8174 316.085 93 314.17 93Z" fill="#992020" fill-rule="evenodd"/><path d="M363.821 93C361.16 93 359.007 94.8174 359.007 97.2048L359.007 123.674C359.007 126.062 361.16 127.993 363.821 127.993 365.847 127.993 368 126.062 368 123.674L368 97.2048C368 94.8174 365.847 93 363.821 93Z" fill="#992020" fill-rule="evenodd"/><path d="M413.313 93C411.16 93 409 94.8174 409 97.2048L409 123.674C409 126.062 411.16 127.993 413.313 127.993 415.84 127.993 417.993 126.062 417.993 123.674L417.993 97.2048C417.993 94.8174 415.84 93 413.313 93Z" fill="#992020" fill-rule="evenodd"/><path d="M463.306 93C461.153 93 459 94.8174 459 97.2048L459 123.674C459 126.062 461.153 127.993 463.306 127.993 465.967 127.993 467.993 126.062 467.993 123.674L467.993 97.2048C467.993 94.8174 465.967 93 463.306 93Z" fill="#992020" fill-rule="evenodd"/><path d="M513.246 93C510.547 93 509.008 94.8174 509.008 97.2048L509.008 123.674C509.008 126.062 510.547 127.993 513.246 127.993 515.945 127.993 518 126.062 518 123.674L518 97.2048C518 94.8174 515.945 93 513.246 93Z" fill="#992020" fill-rule="evenodd"/><path d="M563.186 93C560.525 93 559.007 94.8174 559.007 97.2048L559.007 123.674C559.007 126.062 560.525 127.993 563.186 127.993 565.84 127.993 567.993 126.062 567.993 123.674L567.993 97.2048C567.993 94.8174 565.84 93 563.186 93Z" fill="#992020" fill-rule="evenodd"/><path d="M612.687 93C610.033 93 608.007 94.8174 608.007 97.2048L608.007 123.674C608.007 126.062 610.033 127.993 612.687 127.993 615.348 127.993 616.993 126.062 616.993 123.674L616.993 97.2048C616.993 94.8174 615.348 93 612.687 93Z" fill="#992020" fill-rule="evenodd"/><path d="M662.687 93C660.153 93 658 94.8174 658 97.2048L658 123.674C658 126.062 660.153 127.993 662.687 127.993 665.348 127.993 666.993 126.062 666.993 123.674L666.993 97.2048C666.993 94.8174 665.348 93 662.687 93Z" fill="#992020" fill-rule="evenodd"/><path d="M712.821 93C710.16 93 708.007 94.8174 708.007 97.2048L708.007 123.674C708.007 126.062 710.16 127.993 712.821 127.993 714.847 127.993 717 126.062 717 123.674L717 97.2048C717 94.8174 714.847 93 712.821 93Z" fill="#992020" fill-rule="evenodd"/><path d="M307 160.007 307 162.993 670 162.993 670 160.007Z" fill="#EEEEEE" fill-rule="evenodd"/><path d="M336.007 143.007 336.007 145.993 640.993 145.993 640.993 143.007Z" fill="#EEEEEE" fill-rule="evenodd"/><text fill="#005C4F" font-family="Fira Sans Extra Condensed,Fira Sans Extra Condensed_MSFontService,sans-serif" font-weight="700" font-stretch="ultra-condensed" font-size="133" transform="translate(328.185 369)">MASA</text><path d="M642.898 266.529C642.732 266.568 642.564 266.623 642.389 266.693L627.672 272.382C624.382 273.729 626.165 278.764 629.397 278.017 629.563 277.979 629.734 277.926 629.906 277.854L644.539 272.185C647.911 270.821 646.131 265.783 642.898 266.529Z" fill="#005C4F" fill-rule="evenodd"/><path d="M626.372 257.362C625.602 257.54 624.903 258.06 624.498 259.021L620.679 267.656C619.545 270.221 622.123 272.16 624.185 271.684 624.962 271.504 625.665 270.981 626.071 270.02L629.891 261.388C630.963 258.837 628.415 256.89 626.372 257.362Z" fill="#005C4F" fill-rule="evenodd"/><path d="M631.295 282.444C628.942 282.987 627.964 286.766 630.764 288.051 632.911 288.964 635.163 289.942 637.414 290.919 638.044 291.194 638.638 291.235 639.164 291.113 641.517 290.57 642.583 286.752 639.781 285.526L633.131 282.658C632.465 282.365 631.842 282.317 631.295 282.444Z" fill="#005C4F" fill-rule="evenodd"/></g></svg>