<svg width="552" height="281" xmlns="http://www.w3.org/2000/svg" xmlns:xlink="http://www.w3.org/1999/xlink" overflow="hidden"><defs><clipPath id="clip0"><rect x="212" y="203" width="552" height="281"/></clipPath></defs><g clip-path="url(#clip0)" transform="translate(-212 -203)"><text fill="#005C4F" font-family="Fira Sans Extra Condensed,Fira Sans Extra Condensed_MSFontService,sans-serif" font-weight="700" font-stretch="ultra-condensed" font-size="133" transform="translate(328.185 369)">MASA</text><path d="M642.898 266.529C642.732 266.568 642.564 266.623 642.389 266.693L627.672 272.382C624.382 273.729 626.165 278.764 629.397 278.017 629.563 277.979 629.734 277.926 629.906 277.854L644.539 272.185C647.911 270.821 646.131 265.783 642.898 266.529Z" fill="#005C4F" fill-rule="evenodd"/><path d="M626.372 257.362C625.602 257.54 624.903 258.06 624.498 259.021L620.679 267.656C619.545 270.221 622.123 272.16 624.185 271.684 624.962 271.504 625.665 270.981 626.071 270.02L629.891 261.388C630.963 258.837 628.415 256.89 626.372 257.362Z" fill="#005C4F" fill-rule="evenodd"/><path d="M631.295 282.444C628.942 282.987 627.964 286.766 630.764 288.051 632.911 288.964 635.163 289.942 637.414 290.919 638.044 291.194 638.638 291.235 639.164 291.113 641.517 290.57 642.583 286.752 639.781 285.526L633.131 282.658C632.465 282.365 631.842 282.317 631.295 282.444Z" fill="#005C4F" fill-rule="evenodd"/></g></svg>